<svg width="235" height="61" viewBox="0 0 235 61" fill="none" xmlns="http://www.w3.org/2000/svg">
<g filter="url(#filter0_d)">
<path d="M61.3907 26.328C61.4147 26.448 61.4267 26.604 61.4267 26.796C61.4267 26.988 61.3787 27.192 61.2827 27.408C60.4427 27.552 59.8547 27.732 59.5187 27.948C59.1827 28.164 59.0147 28.56 59.0147 29.136V37.236H57.6827L56.9987 35.94C55.2707 37.092 53.4107 37.668 51.4187 37.668C48.7307 37.668 46.4387 36.672 44.5427 34.68C42.6467 32.664 41.6987 29.94 41.6987 26.508C41.6987 23.052 42.8027 20.232 45.0107 18.048C47.2187 15.864 49.8947 14.772 53.0387 14.772C55.1267 14.772 57.1067 15.132 58.9787 15.852C58.9307 17.34 58.7387 18.84 58.4027 20.352C58.0187 20.352 57.7547 20.34 57.6107 20.316C57.5387 19.068 57.0827 18.108 56.2427 17.436C55.4027 16.764 54.3467 16.428 53.0747 16.428C50.4107 16.428 48.3347 17.316 46.8467 19.092C45.3587 20.868 44.6147 23.292 44.6147 26.364C44.6147 29.412 45.2867 31.764 46.6307 33.42C47.9987 35.076 49.7627 35.904 51.9227 35.904C53.5787 35.904 55.1387 35.496 56.6027 34.68V27.984C55.8347 27.672 54.9707 27.48 54.0107 27.408C54.0107 26.976 54.0467 26.616 54.1187 26.328H61.3907ZM67.6932 34.248C68.5812 35.52 69.8292 36.156 71.4372 36.156C73.0452 36.156 74.2212 35.556 74.9652 34.356C75.7332 33.132 76.1172 31.5 76.1172 29.46C76.1172 27.012 75.6852 25.128 74.8212 23.808C73.9572 22.464 72.7212 21.792 71.1132 21.792C69.5292 21.792 68.3412 22.428 67.5492 23.7C66.7812 24.948 66.3972 26.616 66.3972 28.704C66.3972 31.104 66.8292 32.952 67.6932 34.248ZM71.3292 20.424C73.6332 20.424 75.4692 21.216 76.8372 22.8C78.2292 24.36 78.9252 26.436 78.9252 29.028C78.9252 31.62 78.2172 33.708 76.8012 35.292C75.3852 36.876 73.5012 37.668 71.1492 37.668C68.8212 37.668 66.9852 36.888 65.6412 35.328C64.2972 33.744 63.6252 31.656 63.6252 29.064C63.6252 26.472 64.3332 24.384 65.7492 22.8C67.1652 21.216 69.0252 20.424 71.3292 20.424ZM86.0096 34.248C86.8976 35.52 88.1456 36.156 89.7536 36.156C91.3616 36.156 92.5376 35.556 93.2816 34.356C94.0496 33.132 94.4336 31.5 94.4336 29.46C94.4336 27.012 94.0016 25.128 93.1376 23.808C92.2736 22.464 91.0376 21.792 89.4296 21.792C87.8456 21.792 86.6576 22.428 85.8656 23.7C85.0976 24.948 84.7136 26.616 84.7136 28.704C84.7136 31.104 85.1456 32.952 86.0096 34.248ZM89.6456 20.424C91.9496 20.424 93.7856 21.216 95.1536 22.8C96.5456 24.36 97.2416 26.436 97.2416 29.028C97.2416 31.62 96.5336 33.708 95.1176 35.292C93.7016 36.876 91.8176 37.668 89.4656 37.668C87.1376 37.668 85.3016 36.888 83.9576 35.328C82.6136 33.744 81.9416 31.656 81.9416 29.064C81.9416 26.472 82.6496 24.384 84.0656 22.8C85.4816 21.216 87.3416 20.424 89.6456 20.424ZM109.042 22.152C105.034 22.152 103.03 24.408 103.03 28.92C103.03 31.272 103.45 33.012 104.29 34.14C105.154 35.244 106.33 35.796 107.818 35.796C109.306 35.796 110.53 35.364 111.49 34.5V22.404C110.794 22.236 109.978 22.152 109.042 22.152ZM114.046 37.668C113.47 37.668 112.954 37.5 112.498 37.164C112.066 36.828 111.766 36.372 111.598 35.796C110.35 37.044 108.802 37.668 106.954 37.668C105.13 37.668 103.57 36.948 102.274 35.508C100.978 34.068 100.33 31.992 100.33 29.28C100.33 26.544 101.242 24.384 103.066 22.8C104.914 21.216 107.182 20.424 109.87 20.424C110.422 20.424 110.962 20.46 111.49 20.532V13.836C111.25 13.812 110.914 13.8 110.482 13.8C110.05 13.8 109.546 13.812 108.97 13.836C108.97 13.428 109.018 13.092 109.114 12.828C110.77 12.18 112.426 11.736 114.082 11.496V33.852C114.082 34.572 114.166 35.076 114.334 35.364C114.502 35.652 114.754 35.796 115.09 35.796C115.45 35.796 115.93 35.736 116.53 35.616L116.782 36.048C115.918 37.128 115.006 37.668 114.046 37.668Z" fill="#318FA4"/>
<path d="M118.686 35.976H122.574C124.302 35.976 125.574 35.544 126.39 34.68C127.23 33.816 127.65 32.688 127.65 31.296C127.65 29.904 127.23 28.776 126.39 27.912C125.574 27.024 124.302 26.58 122.574 26.58H118.686V35.976ZM126.678 20.928C126.678 19.56 126.27 18.468 125.454 17.652C124.662 16.836 123.414 16.428 121.71 16.428H118.686V25.32L123.402 25.356C125.586 24.636 126.678 23.16 126.678 20.928ZM121.71 15.24C124.422 15.24 126.39 15.78 127.614 16.86C128.862 17.916 129.486 19.272 129.486 20.928C129.486 22.08 129.174 23.076 128.55 23.916C127.926 24.732 127.098 25.344 126.066 25.752C127.458 26.064 128.538 26.736 129.306 27.768C130.098 28.8 130.494 29.976 130.494 31.296C130.494 32.976 129.834 34.392 128.514 35.544C127.194 36.672 125.238 37.236 122.646 37.236H113.754C113.754 36.732 113.79 36.384 113.862 36.192C114.702 36.072 115.29 35.904 115.626 35.688C115.962 35.448 116.13 35.04 116.13 34.464V16.752C115.458 16.464 114.642 16.296 113.682 16.248C113.682 15.792 113.718 15.456 113.79 15.24H121.71ZM136.925 32.952C136.925 33.84 137.177 34.536 137.681 35.04C138.209 35.52 138.905 35.76 139.769 35.76C141.089 35.76 142.193 35.28 143.081 34.32V28.452L140.525 29.1C138.125 29.748 136.925 31.032 136.925 32.952ZM145.673 37.668C145.049 37.668 144.509 37.5 144.053 37.164C143.597 36.804 143.297 36.312 143.153 35.688C141.953 37.008 140.597 37.668 139.085 37.668C137.597 37.668 136.409 37.248 135.521 36.408C134.633 35.544 134.189 34.44 134.189 33.096C134.189 30.456 136.013 28.74 139.661 27.948L143.081 27.192V25.608C143.081 24.528 142.853 23.736 142.397 23.232C141.965 22.728 141.137 22.476 139.913 22.476C138.689 22.476 137.249 22.764 135.593 23.34L135.125 22.62C136.901 21.156 138.893 20.424 141.101 20.424C142.565 20.424 143.693 20.856 144.485 21.72C145.301 22.584 145.709 23.784 145.709 25.32V33.852C145.709 34.572 145.793 35.076 145.961 35.364C146.129 35.652 146.393 35.796 146.753 35.796C147.137 35.796 147.605 35.736 148.157 35.616L148.373 36.048C147.557 37.128 146.657 37.668 145.673 37.668ZM155.46 25.14V25.392C156.036 23.904 156.9 22.704 158.052 21.792C159.204 20.88 160.44 20.424 161.76 20.424C161.88 20.712 161.94 21.072 161.94 21.504C161.94 21.912 161.856 22.404 161.688 22.98C159.696 22.98 158.064 23.64 156.792 24.96C156.072 25.752 155.628 26.736 155.46 27.912V35.4C156.54 35.832 157.8 36.084 159.24 36.156C159.24 36.612 159.192 36.972 159.096 37.236H150.42C150.396 36.948 150.408 36.588 150.456 36.156C151.368 36.036 151.992 35.856 152.328 35.616C152.688 35.376 152.868 34.956 152.868 34.356V22.944C152.172 22.92 151.632 22.908 151.248 22.908C150.864 22.908 150.564 22.908 150.348 22.908C150.348 22.62 150.396 22.308 150.492 21.972C152.076 21.348 153.636 20.904 155.172 20.64C155.364 21.864 155.46 23.364 155.46 25.14ZM167.323 35.184C168.355 35.76 169.579 36.048 170.995 36.048C172.435 36.048 173.623 35.424 174.559 34.176C175.519 32.928 175.999 31.14 175.999 28.812C175.999 26.484 175.579 24.792 174.739 23.736C173.923 22.68 172.939 22.152 171.787 22.152C170.659 22.152 169.675 22.56 168.835 23.376C168.019 24.192 167.515 25.416 167.323 27.048V35.184ZM172.219 20.424C174.019 20.424 175.579 21.144 176.899 22.584C178.243 24.024 178.915 26.1 178.915 28.812C178.915 31.5 178.111 33.648 176.503 35.256C174.895 36.864 172.939 37.668 170.635 37.668C169.075 37.668 167.599 37.212 166.207 36.3C165.751 36.852 165.139 37.296 164.371 37.632L163.939 37.236C164.467 36.036 164.731 34.704 164.731 33.24V13.836C164.491 13.812 164.155 13.8 163.723 13.8C163.291 13.8 162.787 13.812 162.211 13.836C162.211 13.404 162.271 13.068 162.391 12.828C163.999 12.18 165.643 11.736 167.323 11.496V24.312C167.755 23.064 168.403 22.104 169.267 21.432C170.131 20.76 171.115 20.424 172.219 20.424ZM193.232 26.436C193.208 24.876 192.836 23.724 192.116 22.98C191.396 22.236 190.52 21.864 189.488 21.864C188.48 21.864 187.532 22.272 186.644 23.088C185.756 23.904 185.18 25.128 184.916 26.76L189.092 26.472L193.232 26.436ZM184.736 28.776C184.736 31.008 185.192 32.736 186.104 33.96C187.04 35.16 188.396 35.76 190.172 35.76C191.948 35.76 193.7 35.184 195.428 34.032L195.752 34.68C194 36.672 191.852 37.668 189.308 37.668C187.508 37.668 185.876 37.008 184.412 35.688C183.668 35.016 183.068 34.14 182.612 33.06C182.18 31.956 181.964 30.72 181.964 29.352C181.964 26.544 182.78 24.36 184.412 22.8C186.044 21.216 187.796 20.424 189.668 20.424C191.54 20.424 193.052 21.024 194.204 22.224C195.38 23.4 195.968 25.092 195.968 27.3C195.824 27.564 195.692 27.78 195.572 27.948H184.772C184.748 28.116 184.736 28.392 184.736 28.776ZM203.553 25.14V25.392C204.129 23.904 204.993 22.704 206.145 21.792C207.297 20.88 208.533 20.424 209.853 20.424C209.973 20.712 210.033 21.072 210.033 21.504C210.033 21.912 209.949 22.404 209.781 22.98C207.789 22.98 206.157 23.64 204.885 24.96C204.165 25.752 203.721 26.736 203.553 27.912V35.4C204.633 35.832 205.893 36.084 207.333 36.156C207.333 36.612 207.285 36.972 207.189 37.236H198.513C198.489 36.948 198.501 36.588 198.549 36.156C199.461 36.036 200.085 35.856 200.421 35.616C200.781 35.376 200.961 34.956 200.961 34.356V22.944C200.265 22.92 199.725 22.908 199.341 22.908C198.957 22.908 198.657 22.908 198.441 22.908C198.441 22.62 198.489 22.308 198.585 21.972C200.169 21.348 201.729 20.904 203.265 20.64C203.457 21.864 203.553 23.364 203.553 25.14ZM217.109 36.3C218.309 36.3 219.257 36.048 219.953 35.544C220.649 35.016 220.997 34.38 220.997 33.636C220.997 32.892 220.709 32.268 220.133 31.764C219.557 31.26 218.849 30.816 218.009 30.432C217.169 30.048 216.329 29.652 215.489 29.244C214.673 28.812 213.977 28.248 213.401 27.552C212.825 26.832 212.537 25.992 212.537 25.032C212.537 23.52 213.077 22.38 214.157 21.612C215.237 20.82 216.533 20.424 218.045 20.424C219.581 20.424 221.045 20.664 222.437 21.144C222.461 21.552 222.473 22.104 222.473 22.8C222.473 23.496 222.401 24.3 222.257 25.212C222.065 25.212 221.789 25.176 221.429 25.104C221.453 24.864 221.465 24.636 221.465 24.42C221.465 22.62 220.373 21.72 218.189 21.72C217.229 21.72 216.437 21.984 215.813 22.512C215.213 23.016 214.913 23.652 214.913 24.42C214.913 25.164 215.201 25.8 215.777 26.328C216.377 26.856 217.097 27.3 217.937 27.66C218.801 28.02 219.653 28.404 220.493 28.812C221.357 29.22 222.077 29.772 222.653 30.468C223.253 31.14 223.553 31.932 223.553 32.844C223.553 34.356 222.929 35.544 221.681 36.408C220.457 37.248 218.945 37.668 217.145 37.668C215.345 37.668 213.665 37.416 212.105 36.912C212.057 36.36 212.033 35.724 212.033 35.004C212.033 34.26 212.105 33.444 212.249 32.556C212.465 32.556 212.741 32.58 213.077 32.628C213.077 32.772 213.077 32.916 213.077 33.06C213.077 34.188 213.449 35.016 214.193 35.544C214.961 36.048 215.933 36.3 217.109 36.3Z" fill="#FFFBFB"/>
</g>
<defs>
<filter id="filter0_d" x="37.6987" y="11.496" width="189.854" height="34.172" filterUnits="userSpaceOnUse" color-interpolation-filters="sRGB">
<feFlood flood-opacity="0" result="BackgroundImageFix"/>
<feColorMatrix in="SourceAlpha" type="matrix" values="0 0 0 0 0 0 0 0 0 0 0 0 0 0 0 0 0 0 127 0"/>
<feOffset dy="4"/>
<feGaussianBlur stdDeviation="2"/>
<feColorMatrix type="matrix" values="0 0 0 0 0 0 0 0 0 0 0 0 0 0 0 0 0 0 0.25 0"/>
<feBlend mode="normal" in2="BackgroundImageFix" result="effect1_dropShadow"/>
<feBlend mode="normal" in="SourceGraphic" in2="effect1_dropShadow" result="shape"/>
</filter>
</defs>
</svg>
